<svg xmlns="http://www.w3.org/2000/svg" xml:space="preserve" viewBox="0 0 9.1 9.1">
  <path d="M2.3 7.87c.04.05.12.05.17 0l.2-.2.57-.56.2-.2a.12.12 0 0 0 0-.18l-.2-.2a1.97 1.97 0 0 1 0-2.81 1.97 1.97 0 0 1 2.36-.33c.06.03.07.1.02.15l-.2.2-.5.5c-.05.05-.03.1.04.1l.7.1 2.1.29.42.06c.07 0 .11-.04.1-.11l-.06-.42-.32-2.08-.1-.68c-.02-.06-.06-.08-.11-.03l-.49.48-.25.25a.15.15 0 0 1-.18.02 3.58 3.58 0 0 0-4.68.36 3.58 3.58 0 0 0 0 5.09z"/>
  <text xml:space="preserve" x="3.11" y="7.15" stroke-width=".2" font-family="sans-serif" font-size="3.04" font-weight="900"><tspan x="3.11" y="7.15">180</tspan></text>
</svg>
