<svg xmlns="http://www.w3.org/2000/svg" xml:space="preserve" viewBox="0 0 10 10">
  <path fill="#87eb46" stroke="#000" stroke-linecap="round" stroke-linejoin="round" stroke-width=".5" d="M1.7 5.56C1.6.72 8.35.9 8.4 5.36 8.33 6.2 7.8 6.49 7 6.5H3c-.65-.05-1.25-.34-1.3-.94Z"/>
  <g stroke="#000" stroke-linecap="round" stroke-linejoin="round" transform="translate(.3 -.2)">
    <path fill="none" stroke-width=".55" d="M5.77 4.85a1.07.42 0 0 1-.53.36 1.07.42 0 0 1-1.07 0 1.07.42 0 0 1-.54-.36"/>
    <ellipse cx="5.4" cy="3.69" stroke-width=".2" rx=".15" ry=".12"/>
    <ellipse cx="3.8" cy="3.69" stroke-width=".2" rx=".15" ry=".12"/>
  </g>
  <g fill="#DA4683" stroke="#000" stroke-linecap="round" stroke-linejoin="round" stroke-width=".36">
    <ellipse cx="7.03" cy="2.51" rx=".98" ry="1.01"/>
    <ellipse cx="5.52" cy="1.84" rx=".98" ry="1.01"/>
  </g>
</svg>
