<svg xmlns="http://www.w3.org/2000/svg" xml:space="preserve" viewBox="0 0 9.1 9.1">
  <g fill="#B4EB46">
  <path d="M8.26 3.88a.12.12 0 0 1-.03.17l-.24.17-.66.44-.24.16a.12.12 0 0 1-.17-.03l-.16-.24c-.3-.47-.3-.46-.67-.83a1.97 1.97 0 0 0-2.37-.33c-.06.03-.07.1-.02.15l.2.2.5.5c.05.05.03.1-.04.1l-.7.1-2.1.29-.42.06c-.07 0-.11-.04-.1-.11l.06-.42.32-2.08.1-.68c.02-.06.06-.08.1-.03l.5.48.25.25a.15.15 0 0 0 .18.02 3.58 3.58 0 0 1 4.68.36c.6.62.59.62 1.03 1.3z"/>
  <text xml:space="preserve" x="1.64" y="7.26" stroke-width=".2" font-family="sans-serif" font-size="3.04" font-weight="900"><tspan x="1.64" y="7.26">90</tspan></text>
  </g>
</svg>
