<?xml version="1.0" encoding="iso-8859-1"?>
<!-- Uploaded to: SVG Repo, www.svgrepo.com, Generator: SVG Repo Mixer Tools -->
<svg fill="#000000" height="55px" width="55px" version="1.1" id="Capa_1" xmlns="http://www.w3.org/2000/svg" xmlns:xlink="http://www.w3.org/1999/xlink" 
	 viewBox="0 0 228.733 228.733" xml:space="preserve">
<path fill="#000000" d="M228.733,45.473v-30h-41.037l-14.258,14.269L148.717,5.021l-44.435,44.435c-5.349-1.003-10.826-1.533-16.387-1.533
	c-23.478,0-45.55,9.142-62.15,25.743C9.143,90.268,0,112.34,0,135.818s9.143,45.55,25.744,62.15
	c16.601,16.602,38.673,25.744,62.15,25.744s45.55-9.143,62.151-25.744c21.033-21.033,29.134-50.159,24.349-77.446l44.911-44.911
	l-24.655-24.655l5.479-5.483H228.733z M128.833,176.755c-10.936,10.935-25.474,16.957-40.938,16.957
	c-15.464,0-30.003-6.022-40.938-16.957S30,151.282,30,135.818c0-15.465,6.022-30.003,16.957-40.938
	c10.935-10.935,25.474-16.956,40.938-16.956c15.465,0,30.003,6.021,40.938,16.956C151.405,117.453,151.405,154.182,128.833,176.755z
	 M162.735,89.756c-3.522-5.722-7.736-11.135-12.689-16.089c-4.694-4.694-9.839-8.769-15.316-12.233l13.987-13.987l28.163,28.164
	L162.735,89.756z"/>
</svg>