<svg xml:space="preserve" xmlns="http://www.w3.org/2000/svg" viewBox="0 0 10 10">
  <path fill="#dc552e" stroke="#000" stroke-width=".3" stroke-linecap="round" stroke-linejoin="round" d="m5.694 2.185 2.121 2.121-2.828 2.828-2.121-2.12z"/>
  <path fill="#6c8dac" stroke="#000" stroke-width=".3" stroke-linecap="round" stroke-linejoin="round" d="m2.892 4.987 2.121 2.121-.707.707-2.121-2.12z"/>
  <path fill="#666" fill-opacity=".501" d="m3.649 7.119 3.536-3.536.707.707-3.536 3.536z"/>
  <path fill="#fbeebe" d="m4.125 7.069 3.182-3.182.212.212L4.337 7.28z"/>
  <path fill="#fbeebe" d="m2.739 5.349 1.768 1.768-.212.212L2.527 5.56z"/>
  <path fill="none" stroke="#000" stroke-width=".3" stroke-linecap="round" stroke-linejoin="round" d="m2.892 4.987 2.121 2.121-.707.707-2.121-2.12z"/>
  <path stroke="#000" stroke-width=".3" stroke-linecap="round" stroke-linejoin="round" fill="none" d="m5.693 2.185 2.122 2.122-2.829 2.828-2.121-2.121z"/>
  <path d="M4.735 7.965h2.8v-.5h-2.3z"/>
</svg>
